<mxfile host="65bd71144e">
    <diagram id="xl0O6oqY9PpzHcYV7opJ" name="第 1 页">
        <mxGraphModel dx="1003" dy="425" grid="0" gridSize="10" guides="1" tooltips="1" connect="1" arrows="1" fold="1" page="1" pageScale="1" pageWidth="827" pageHeight="1169" math="0" shadow="0">
            <root>
                <mxCell id="0"/>
                <mxCell id="1" parent="0"/>
                <mxCell id="17" value="&lt;b style=&quot;border-color: var(--border-color); font-size: 18px;&quot;&gt;客户端&lt;/b&gt;" style="rounded=1;whiteSpace=wrap;html=1;" vertex="1" parent="1">
                    <mxGeometry x="156" y="556" width="120" height="60" as="geometry"/>
                </mxCell>
                <mxCell id="18" value="&lt;b style=&quot;border-color: var(--border-color); font-size: 18px;&quot;&gt;图像识别系统&lt;/b&gt;" style="rounded=1;whiteSpace=wrap;html=1;" vertex="1" parent="1">
                    <mxGeometry x="342" y="406" width="138" height="60" as="geometry"/>
                </mxCell>
                <mxCell id="19" value="&lt;b style=&quot;border-color: var(--border-color); font-size: 18px;&quot;&gt;后端&lt;/b&gt;" style="rounded=1;whiteSpace=wrap;html=1;" vertex="1" parent="1">
                    <mxGeometry x="357" y="559" width="120" height="60" as="geometry"/>
                </mxCell>
                <mxCell id="20" value="&lt;b style=&quot;border-color: var(--border-color); font-size: 18px;&quot;&gt;数据库&lt;/b&gt;" style="rounded=1;whiteSpace=wrap;html=1;" vertex="1" parent="1">
                    <mxGeometry x="559" y="559" width="120" height="60" as="geometry"/>
                </mxCell>
                <mxCell id="22" value="" style="edgeStyle=none;shape=flexArrow;html=1;entryX=0.455;entryY=0;entryDx=0;entryDy=0;entryPerimeter=0;" edge="1" parent="1" target="19">
                    <mxGeometry relative="1" as="geometry">
                        <mxPoint x="411.65999999999997" y="540" as="targetPoint"/>
                        <mxPoint x="411.65999999999997" y="467" as="sourcePoint"/>
                    </mxGeometry>
                </mxCell>
                <mxCell id="24" value="" style="edgeStyle=none;shape=flexArrow;html=1;entryX=1;entryY=0.75;entryDx=0;entryDy=0;" edge="1" parent="1" target="17">
                    <mxGeometry relative="1" as="geometry">
                        <mxPoint x="290" y="602" as="targetPoint"/>
                        <mxPoint x="357" y="602" as="sourcePoint"/>
                    </mxGeometry>
                </mxCell>
                <mxCell id="25" value="" style="edgeStyle=none;shape=flexArrow;html=1;entryX=0;entryY=0.2;entryDx=0;entryDy=0;entryPerimeter=0;" edge="1" parent="1" target="19">
                    <mxGeometry relative="1" as="geometry">
                        <mxPoint x="354" y="571" as="targetPoint"/>
                        <mxPoint x="276" y="571" as="sourcePoint"/>
                    </mxGeometry>
                </mxCell>
                <mxCell id="26" value="" style="edgeStyle=none;shape=flexArrow;html=1;entryX=1;entryY=0.75;entryDx=0;entryDy=0;" edge="1" parent="1">
                    <mxGeometry relative="1" as="geometry">
                        <mxPoint x="477" y="603.5" as="targetPoint"/>
                        <mxPoint x="558" y="604.5" as="sourcePoint"/>
                    </mxGeometry>
                </mxCell>
                <mxCell id="27" value="" style="edgeStyle=none;shape=flexArrow;html=1;entryX=0;entryY=0.2;entryDx=0;entryDy=0;entryPerimeter=0;" edge="1" parent="1">
                    <mxGeometry relative="1" as="geometry">
                        <mxPoint x="558" y="573.5" as="targetPoint"/>
                        <mxPoint x="477" y="573.5" as="sourcePoint"/>
                    </mxGeometry>
                </mxCell>
                <mxCell id="28" value="传递信息" style="text;strokeColor=none;align=center;fillColor=none;html=1;verticalAlign=middle;whiteSpace=wrap;rounded=0;" vertex="1" parent="1">
                    <mxGeometry x="417" y="491" width="60" height="30" as="geometry"/>
                </mxCell>
                <mxCell id="29" value="修改数据" style="text;strokeColor=none;align=center;fillColor=none;html=1;verticalAlign=middle;whiteSpace=wrap;rounded=0;" vertex="1" parent="1">
                    <mxGeometry x="481" y="535" width="60" height="30" as="geometry"/>
                </mxCell>
                <mxCell id="31" value="传递数据" style="text;strokeColor=none;align=center;fillColor=none;html=1;verticalAlign=middle;whiteSpace=wrap;rounded=0;" vertex="1" parent="1">
                    <mxGeometry x="484" y="619" width="60" height="30" as="geometry"/>
                </mxCell>
                <mxCell id="32" value="传递指令" style="text;strokeColor=none;align=center;fillColor=none;html=1;verticalAlign=middle;whiteSpace=wrap;rounded=0;" vertex="1" parent="1">
                    <mxGeometry x="282" y="529" width="60" height="30" as="geometry"/>
                </mxCell>
                <mxCell id="33" value="传递数据" style="text;strokeColor=none;align=center;fillColor=none;html=1;verticalAlign=middle;whiteSpace=wrap;rounded=0;" vertex="1" parent="1">
                    <mxGeometry x="282" y="616" width="60" height="30" as="geometry"/>
                </mxCell>
            </root>
        </mxGraphModel>
    </diagram>
</mxfile>